<svg xmlns="http://www.w3.org/2000/svg" xmlns:xlink="http://www.w3.org/1999/xlink" width="490.613" height="134.88" viewBox="0 0 490.613 134.88">
  <defs>
    <linearGradient id="linear-gradient" x1="0.938" y1="0.109" x2="0.071" y2="0.947" gradientUnits="objectBoundingBox">
      <stop offset="0" stop-color="#0a4975"/>
      <stop offset="0.261" stop-color="#154c71"/>
      <stop offset="0.75" stop-color="#f28d2d"/>
      <stop offset="1" stop-color="#ff9129"/>
    </linearGradient>
  </defs>
  <g id="Group_9628" data-name="Group 9628" transform="translate(-133.172 -130)">
    <path id="Path_3175" data-name="Path 3175" d="M-135.955-27.492l-4.077.034a12.68,12.68,0,0,0-4.312.691,8.774,8.774,0,0,0-3.285,2.055,8.981,8.981,0,0,0-2.089,3.4,14.007,14.007,0,0,0-.724,4.7V0h-8.187V-34.668h6.637l.741,4.144a14.045,14.045,0,0,1,4.43-2.965,15.674,15.674,0,0,1,6.351-1.179h4.515Zm1.656-7.176h8.254V0H-134.3Zm-.91-9.8a4.268,4.268,0,0,1,.371-1.769,4.544,4.544,0,0,1,1.028-1.449,4.893,4.893,0,0,1,1.6-.994,5.667,5.667,0,0,1,2.089-.371,5.8,5.8,0,0,1,2.106.371,5.056,5.056,0,0,1,1.634.994,4.425,4.425,0,0,1,1.044,1.449,4.268,4.268,0,0,1,.371,1.769,4.268,4.268,0,0,1-.371,1.769,4.425,4.425,0,0,1-1.044,1.449,4.834,4.834,0,0,1-1.634.977,6.048,6.048,0,0,1-2.106.354,5.77,5.77,0,0,1-2.072-.354,4.9,4.9,0,0,1-1.6-.977,4.425,4.425,0,0,1-1.044-1.449A4.268,4.268,0,0,1-135.208-44.473Zm20.22,34.028a3.644,3.644,0,0,0,.59,1.853,5.2,5.2,0,0,0,1.5,1.516,7.861,7.861,0,0,0,2.19,1.011,9.419,9.419,0,0,0,2.7.371,11.117,11.117,0,0,0,5.761-1.162,3.562,3.562,0,0,0,1.853-3.15,2.651,2.651,0,0,0-.674-1.853,5.148,5.148,0,0,0-1.954-1.247A19.54,19.54,0,0,0-106.161-14q-1.853-.387-4.211-.825-1.179-.168-2.476-.438a19.611,19.611,0,0,1-2.577-.724,13.156,13.156,0,0,1-2.443-1.162,8.7,8.7,0,0,1-2.055-1.735,8.01,8.01,0,0,1-1.432-2.459,9.605,9.605,0,0,1-.539-3.386,10.947,10.947,0,0,1,.876-4.43,8.983,8.983,0,0,1,2.729-3.47,13.383,13.383,0,0,1,4.717-2.274,25.385,25.385,0,0,1,6.839-.809,18.359,18.359,0,0,1,5.643.809,12.731,12.731,0,0,1,4.262,2.257,9.875,9.875,0,0,1,2.7,3.47,10.307,10.307,0,0,1,.943,4.414l-8.187-.034a3.986,3.986,0,0,0-1.718-3,6.886,6.886,0,0,0-4.211-1.179,10.573,10.573,0,0,0-2.931.354,6.289,6.289,0,0,0-1.988.927,3.657,3.657,0,0,0-1.146,1.331,3.527,3.527,0,0,0-.371,1.567,2.476,2.476,0,0,0,.505,1.583,3.816,3.816,0,0,0,1.516,1.078,12.651,12.651,0,0,0,2.561.741q1.55.3,3.639.539,2.527.4,4.986.994a16.254,16.254,0,0,1,4.38,1.7,9.02,9.02,0,0,1,3.1,2.931,8.468,8.468,0,0,1,1.179,4.683,10.543,10.543,0,0,1-1.179,5.1A10.172,10.172,0,0,1-96.39-1.819,15.81,15.81,0,0,1-101.579.354a29.031,29.031,0,0,1-6.738.724A18.529,18.529,0,0,1-114.786.051a14.19,14.19,0,0,1-4.6-2.678,10.915,10.915,0,0,1-2.746-3.706,10.156,10.156,0,0,1-.91-4.144Zm25.139-37.027h8.187v30.019l14.285-17.216h9.6L-69.937-20.114-56.7,0h-9.8l-9.333-14.723-5.829,6.7V0h-8.187Zm38.414,30.12a11.893,11.893,0,0,0,.893,4.717A10.754,10.754,0,0,0-48.134-9.08a10.491,10.491,0,0,0,3.487,2.24,11.179,11.179,0,0,0,4.127.775,10.818,10.818,0,0,0,5.761-1.567,10.384,10.384,0,0,0,3.942-4.363h8.389a16.845,16.845,0,0,1-2.426,5.205,17.848,17.848,0,0,1-3.992,4.127A18.391,18.391,0,0,1-34.152.067a20.335,20.335,0,0,1-6.4.977A19.822,19.822,0,0,1-48.2-.4a18.791,18.791,0,0,1-6.048-3.942,18.039,18.039,0,0,1-3.976-5.829,17.913,17.913,0,0,1-1.432-7.143,18.219,18.219,0,0,1,1.415-7.159,17.961,17.961,0,0,1,3.959-5.862A18.649,18.649,0,0,1-48.235-34.3a19.912,19.912,0,0,1,7.682-1.449,20.178,20.178,0,0,1,6.385.977,18.687,18.687,0,0,1,5.29,2.712,17.415,17.415,0,0,1,3.992,4.127,17.681,17.681,0,0,1,2.459,5.222h-8.389a10.174,10.174,0,0,0-3.925-4.329A10.9,10.9,0,0,0-40.519-28.6a11.269,11.269,0,0,0-4.161.775,10.308,10.308,0,0,0-3.47,2.24,10.885,10.885,0,0,0-2.392,3.554A11.8,11.8,0,0,0-51.435-17.351Zm30.092.034a18.219,18.219,0,0,1,1.415-7.159,17.772,17.772,0,0,1,3.959-5.845,18.791,18.791,0,0,1,6.048-3.942,19.822,19.822,0,0,1,7.648-1.449,20.038,20.038,0,0,1,7.7,1.449,18.746,18.746,0,0,1,6.064,3.942,17.991,17.991,0,0,1,3.976,5.845A18.034,18.034,0,0,1,16.9-17.317a10.668,10.668,0,0,1-.067,1.348q-.067.505-.135.977H-13.291a11.24,11.24,0,0,0,1.466,3.841A11.251,11.251,0,0,0-9.265-8.238,11.6,11.6,0,0,0-5.947-6.385a10.93,10.93,0,0,0,3.74.657A10.486,10.486,0,0,0,3.15-7.075a9.227,9.227,0,0,0,3.538-3.538h8.861a16.639,16.639,0,0,1-2.459,4.4A18.064,18.064,0,0,1,9.2-2.493,19.436,19.436,0,0,1,4.043.084a19.875,19.875,0,0,1-6.317.96A19.822,19.822,0,0,1-9.922-.4,18.791,18.791,0,0,1-15.97-4.346a17.819,17.819,0,0,1-3.959-5.829A18.1,18.1,0,0,1-21.344-17.317ZM-2.207-29.143a11.532,11.532,0,0,0-3.858.623,10.825,10.825,0,0,0-3.167,1.735,10.7,10.7,0,0,0-2.375,2.645,11.618,11.618,0,0,0-1.449,3.352H8.271A12.193,12.193,0,0,0,6.856-24.14a10.6,10.6,0,0,0-2.291-2.645A10.338,10.338,0,0,0,1.516-28.52,10.747,10.747,0,0,0-2.207-29.143ZM55.007,0H46.752V-18.5a15.7,15.7,0,0,0-.606-4.683,8.227,8.227,0,0,0-1.718-3.133,6.376,6.376,0,0,0-2.712-1.752,11.2,11.2,0,0,0-3.588-.539,9.736,9.736,0,0,0-3.959.792,9.206,9.206,0,0,0-3.116,2.224,10.144,10.144,0,0,0-2.038,3.4,12.463,12.463,0,0,0-.724,4.329V0H20.1V-34.668h6.671l.606,3.5a17.758,17.758,0,0,1,2.426-1.769,19.733,19.733,0,0,1,2.881-1.449,18.76,18.76,0,0,1,3.218-.977,16.513,16.513,0,0,1,3.4-.354,19.679,19.679,0,0,1,7.008,1.129,12.3,12.3,0,0,1,4.9,3.3,13.643,13.643,0,0,1,2.864,5.357,26.013,26.013,0,0,1,.927,7.26ZM63.2-44.506l6-.034v9.872H80.247v7.075H69.162v14.184a10.378,10.378,0,0,0,.489,3.453A5.5,5.5,0,0,0,70.965-7.8,4.591,4.591,0,0,0,72.9-6.688a8.486,8.486,0,0,0,2.358.32h5.93L81.123.371H74.486A23.128,23.128,0,0,1,69.23-.2a10.079,10.079,0,0,1-4.279-2.106A10.377,10.377,0,0,1,62.07-6.5a18.684,18.684,0,0,1-1.061-6.839V-27.593H55.214v-6.334l5.593-1.55Zm43.568,17.014-4.077.034a12.68,12.68,0,0,0-4.313.691,8.774,8.774,0,0,0-3.285,2.055A8.981,8.981,0,0,0,93-21.31a14.007,14.007,0,0,0-.724,4.7V0H84.093V-34.668H90.73l.741,4.144a14.045,14.045,0,0,1,4.43-2.965,15.674,15.674,0,0,1,6.351-1.179h4.515ZM106.4-17.317a19.224,19.224,0,0,1,1.331-7.159,17.462,17.462,0,0,1,3.773-5.845,17.845,17.845,0,0,1,5.862-3.942,19.289,19.289,0,0,1,7.6-1.449,17.36,17.36,0,0,1,3.723.387,18.781,18.781,0,0,1,3.319,1.044,16.055,16.055,0,0,1,2.847,1.55,17.969,17.969,0,0,1,2.308,1.87l.472-3.807h7.008V0h-7.008l-.472-3.807A16.7,16.7,0,0,1,134.8-1.92a17.656,17.656,0,0,1-2.847,1.533,18.308,18.308,0,0,1-3.3,1.044,17.36,17.36,0,0,1-3.723.387,19.4,19.4,0,0,1-7.564-1.432,17.447,17.447,0,0,1-5.845-3.925,17.815,17.815,0,0,1-3.773-5.845A19.013,19.013,0,0,1,106.4-17.317Zm8.187-.034a11.731,11.731,0,0,0,.876,4.582,10.921,10.921,0,0,0,2.392,3.588,10.762,10.762,0,0,0,3.538,2.325,11.385,11.385,0,0,0,4.346.825,11.3,11.3,0,0,0,4.313-.825,10.576,10.576,0,0,0,3.521-2.325,11.1,11.1,0,0,0,2.375-3.571,11.7,11.7,0,0,0,.876-4.6,11.519,11.519,0,0,0-.876-4.531,10.774,10.774,0,0,0-2.392-3.554,11.128,11.128,0,0,0-3.538-2.325,11.186,11.186,0,0,0-4.346-.842,11.385,11.385,0,0,0-4.346.825,10.576,10.576,0,0,0-3.521,2.325,10.881,10.881,0,0,0-2.358,3.571A11.716,11.716,0,0,0,114.589-17.351Zm35.718-30.12h8.187V0h-8.187Z" transform="translate(465.291 214)" fill="#1e1e1e"/>
    <path id="Path_2645" data-name="Path 2645" d="M820.43,249.164c0-.28-.023-.556-.028-.836.005-.094.028-.18.028-.276a4.444,4.444,0,0,0-.054-.531,59.8,59.8,0,0,0-2.007-13.953,68.56,68.56,0,0,0-132.981,0c-.035.14-.04.28-.061.42a59.2,59.2,0,0,0-1.958,13.443,4.884,4.884,0,0,0-.042.622c0,.159.005.316.012.476l0,.019,0,.142c-.007.157-.012.315-.012.476,0,.278.025.556.028.834-.005.094-.028.18-.028.278a4.859,4.859,0,0,0,.054.531,60,60,0,0,0,2.007,13.953,68.56,68.56,0,0,0,132.981,0c.035-.142.04-.281.063-.421a59.153,59.153,0,0,0,1.956-13.443,4.591,4.591,0,0,0,.042-.621c0-.161-.005-.318-.01-.476l-.005-.021.005-.14C820.425,249.48,820.43,249.323,820.43,249.164Zm-.028-1.2-.011,0-.005-.121C820.388,247.882,820.4,247.922,820.4,247.961Zm-11-12.062a50.933,50.933,0,0,1,1.761,13.263l-.014.617,0,.1c-.009.1-.014.2-.016.3a51.014,51.014,0,0,1-50.727,49.744l-.182-.005c-.937,0-1.873-.037-2.8-.091-.271-.018-.538-.042-.808-.063q-.957-.071-1.909-.175c-.4-.047-.808-.1-1.208-.154-.451-.061-.9-.133-1.35-.206-.54-.091-1.08-.18-1.615-.288-.182-.035-.362-.079-.542-.115a51.136,51.136,0,0,1-40.186-45.816l-.042-.6c-.009-.122-.01-.248-.017-.371,0-.177,0-.383.01-.6.012-.409.024-.818.014-1.229V248.12a32.975,32.975,0,0,1,6.888-19.112c.133-.173.267-.346.4-.516.213-.266.428-.53.649-.788v21.46A42.612,42.612,0,0,0,783.49,285a4.407,4.407,0,0,0,.484-.274,42.783,42.783,0,0,0,19.383-35.566v-.329c0-.308.005-.614,0-.874-.016-.78-.059-1.552-.1-2.325-.005-.1,0-.185-.011-.287s-.01-.231-.016-.322l0-.04c-.005-.084-.016-.166-.021-.25l-.03-.337c-.061-.781-.131-1.559-.22-2.325-.023-.178-.045-.357-.071-.535l-.03-.206c-.094-.733-.2-1.463-.316-2.177-.033-.192-.068-.383-.107-.573l-.042-.236c-.126-.691-.257-1.381-.4-2.046-.047-.219-.1-.434-.151-.648l-.054-.231c-.154-.654-.313-1.306-.488-1.951-.065-.241-.133-.479-.2-.717l-.052-.182c-.18-.626-.365-1.25-.558-1.85-.073-.229-.152-.456-.229-.684l-.094-.271c-.2-.591-.408-1.18-.63-1.768-.091-.245-.187-.486-.283-.729l-.089-.222c-.224-.565-.453-1.131-.691-1.677-.112-.264-.231-.526-.35-.789l-.089-.2c-.245-.535-.491-1.07-.75-1.6-.149-.308-.3-.608-.5-.993-.26-.509-.526-1.016-.8-1.516-.183-.33-.369-.657-.56-.991-.278-.479-.559-.958-.86-1.453-.2-.329-.411-.657-.614-.974q-.44-.692-.9-1.372c-.224-.33-.454-.661-.692-1q-.456-.645-.93-1.278c-.25-.334-.505-.666-.754-.983q-.477-.614-.968-1.21c-.273-.33-.547-.659-.827-.982-.327-.381-.661-.757-.995-1.128-.294-.325-.591-.649-.9-.977-.336-.353-.677-.7-1.014-1.04q-.477-.485-.969-.961c-.341-.327-.687-.649-1.031-.965s-.689-.631-1.044-.944-.689-.591-1.044-.888-.738-.615-1.115-.918c-.316-.253-.638-.5-1.049-.813s-.794-.6-1.2-.9c-.315-.229-.636-.451-1.046-.734s-.845-.584-1.269-.86c-.285-.189-.577-.371-.867-.551l-.372-.233c-.388-.243-.778-.486-1.164-.713-.273-.161-.549-.315-.825-.47l-.355-.2c-.43-.245-.864-.486-1.3-.717-.231-.122-.463-.239-.7-.355l-.509-.257c-.444-.222-.887-.444-1.322-.647-.229-.107-.465-.212-.7-.315l-.353-.157c-.519-.231-1.038-.462-1.563-.677-.2-.084-.4-.161-.6-.238l-.287-.112c-.589-.231-1.178-.463-1.783-.678-.184-.065-.369-.126-.554-.187l-.316-.1c-.619-.212-1.236-.42-1.851-.6-.133-.04-.266-.077-.4-.115A59.205,59.205,0,0,1,809.4,235.9Zm-66.049-20.16a33.461,33.461,0,0,1,33.422,33.424v29.1a33.372,33.372,0,0,1-49.8-29.1v-29.1A33.29,33.29,0,0,1,743.356,215.74Zm-60,34.625h.011l0,.121C683.368,250.445,683.356,250.405,683.356,250.365Zm11,12.062a50.86,50.86,0,0,1-1.761-13.263l.012-.617,0-.1c.009-.1.012-.2.016-.3A51.01,51.01,0,0,1,743.344,198.4l.184,0c.935,0,1.869.038,2.8.093.273.016.542.04.813.061.636.047,1.271.1,1.9.177.406.045.808.1,1.21.154.451.061.9.131,1.346.2.542.091,1.084.182,1.621.288.18.037.357.079.536.115a51.136,51.136,0,0,1,40.188,45.814l.044.607c.009.121.009.245.018.365,0,.175,0,.381-.01.6-.014.409-.025.82-.016,1.231v2.091A32.981,32.981,0,0,1,787.1,269.32c-.135.173-.268.344-.406.514-.211.266-.427.53-.648.79v-21.46a42.613,42.613,0,0,0-65.764-35.851,4.865,4.865,0,0,0-.5.285A42.776,42.776,0,0,0,700.4,249.164l0,.325c0,.308,0,.614,0,.878.016.781.059,1.554.1,2.329.005.1,0,.182.01.281,0,.115.009.231.016.323l0,.038c.007.084.016.168.023.252l.028.337c.061.781.131,1.559.222,2.324.021.178.046.358.072.535l.028.206c.1.733.2,1.463.318,2.18.033.194.07.385.106.577l.042.227c.126.692.257,1.383.4,2.047.045.219.1.435.149.65l.056.229c.154.656.313,1.306.486,1.953.065.24.135.479.2.717l.052.18c.18.628.364,1.252.558,1.85.072.231.15.456.229.684l.093.271c.2.591.407,1.18.628,1.762.093.248.192.5.29.743l.086.213c.222.565.451,1.128.689,1.678.114.264.233.525.351.787l.089.2q.365.805.748,1.6c.15.306.306.608.5.991.262.509.526,1.012.8,1.518.182.329.369.656.556.984.28.484.563.965.858,1.451.2.332.414.663.621.986.3.462.594.918.9,1.358.227.336.456.668.7,1.007q.456.643.932,1.276c.25.334.5.666.752.984.318.407.643.809.97,1.208.271.33.547.659.827.983.329.383.663.762.988,1.119.3.329.6.656.907.986.334.353.671.7,1.012,1.04.32.323.64.643.97.962s.682.645,1.03.965.689.633,1.044.944.691.593,1.044.888.738.615,1.117.918c.316.254.638.5,1.058.82l.126.1c.351.267.7.535,1.063.794.316.229.638.451.96.675l.179.122c.392.271.783.542,1.178.8.285.187.575.369.866.551l.327.2c.4.25.8.5,1.212.74.3.175.593.341.893.509l.131.073c.479.271.96.542,1.458.8.231.122.463.238.7.355l.509.255c.442.222.887.444,1.32.647.217.1.437.2.657.3l.4.175c.519.231,1.037.462,1.563.678.2.082.4.161.6.238l.287.11c.589.232,1.18.463,1.785.678.173.061.348.119.523.177l.264.087c.642.219,1.285.435,1.936.633.131.038.266.077.4.114A59.2,59.2,0,0,1,694.352,262.426Z" transform="translate(-550.154 -51.723)" fill="url(#linear-gradient)"/>
  </g>
</svg>
